<?xml version="1.0" encoding="UTF-8" standalone="no"?>
<svg
   viewBox="0 0 793.70667 793.70667"
   height="793.70667"
   width="793.70667"
   xml:space="preserve"
   id="svg2"
   version="1.1"
   sodipodi:docname="logo_alt.svg"
   inkscape:version="1.1 (c68e22c387, 2021-05-23)"
   xmlns:inkscape="http://www.inkscape.org/namespaces/inkscape"
   xmlns:sodipodi="http://sodipodi.sourceforge.net/DTD/sodipodi-0.dtd"
   xmlns="http://www.w3.org/2000/svg"
   xmlns:svg="http://www.w3.org/2000/svg"
   xmlns:rdf="http://www.w3.org/1999/02/22-rdf-syntax-ns#"
   xmlns:cc="http://creativecommons.org/ns#"
   xmlns:dc="http://purl.org/dc/elements/1.1/"><sodipodi:namedview
     pagecolor="#ffffff"
     bordercolor="#666666"
     borderopacity="1"
     objecttolerance="10"
     gridtolerance="10"
     guidetolerance="10"
     inkscape:pageopacity="0"
     inkscape:pageshadow="2"
     inkscape:window-width="1920"
     inkscape:window-height="1013"
     id="namedview3799"
     showgrid="false"
     inkscape:zoom="0.37773814"
     inkscape:cx="807.43767"
     inkscape:cy="1118.4997"
     inkscape:window-x="-9"
     inkscape:window-y="-9"
     inkscape:window-maximized="1"
     inkscape:current-layer="text5832"
     inkscape:pagecheckerboard="0" /><metadata
     id="metadata8"><rdf:RDF><cc:Work
         rdf:about=""><dc:format>image/svg+xml</dc:format><dc:type
           rdf:resource="http://purl.org/dc/dcmitype/StillImage" /></cc:Work></rdf:RDF></metadata><defs
     id="defs6"><rect
       x="14.560351"
       y="672.4235"
       width="819.84813"
       height="58.181707"
       id="rect5834" /><clipPath
       id="clipPath18"
       clipPathUnits="userSpaceOnUse"><path
         id="path16"
         d="M 0,595.28 H 595.28 V 0 H 0 Z" /></clipPath></defs><g
     transform="matrix(2.2961296,0,0,-2.3308861,-284.69501,1066.2828)"
     id="g10"><g
       clip-path="url(#clipPath18)"
       id="g14"><g
         transform="translate(449.4629,154.8779)"
         id="g24" /><g
         transform="translate(234.7832,210.9287)"
         id="g36"><path
           id="path38"
           style="fill:#415464;fill-opacity:1;fill-rule:nonzero;stroke:none"
           d="m 0,0 c -4.779,1.197 -8.87,3.396 -8.87,8.553 0,6.289 4.974,8.994 9.054,8.994 5.657,0 9.186,-4.151 9.434,-9.311 l 3.401,0.188 c -0.321,6.859 -5.163,12.508 -12.892,12.508 -5.102,0 -12.398,-3.452 -12.398,-12.508 0,-6.977 5.543,-10.18 11.389,-11.754 10.439,-2.701 12.327,-5.348 12.327,-9.434 0,-5.029 -4.212,-10.873 -11.445,-10.873 -4.032,0 -10.119,1.823 -10.876,11.25 l -3.402,-0.185 c 0.95,-12.133 9.432,-14.465 14.217,-14.465 9.494,0 14.9,7.605 14.9,14.273 C 14.839,-7.229 12.196,-3.211 0,0"
           inkscape:connector-curvature="0" /></g><g
         transform="translate(265.2891,207.7881)"
         id="g40"><path
           id="path42"
           style="fill:#415464;fill-opacity:1;fill-rule:nonzero;stroke:none"
           d="M 0,0 H 13.835 V 3.393 H 0 v 16.474 h 17.354 v 3.395 H -3.401 V -22.51 h 23.147 v 3.393 H 0 Z"
           inkscape:connector-curvature="0" /></g><g
         transform="translate(315.5176,228.9111)"
         id="g44"><path
           id="path46"
           style="fill:#415464;fill-opacity:1;fill-rule:nonzero;stroke:none"
           d="m 0,0 c 6.166,0 11.328,-2.383 14.973,-6.094 l 2.386,2.387 C 13.082,0.631 7.041,3.396 0,3.396 c -12.512,0 -23.897,-9.935 -23.897,-24.273 0,-12.51 9.94,-23.887 24.272,-23.887 6.295,0 12.332,2.506 16.799,6.916 l -2.391,2.385 c -3.902,-3.771 -9.121,-5.902 -14.471,-5.902 -12.003,0 -20.803,9.558 -20.803,20.556 C -20.491,-8.799 -10.93,0 0,0"
           inkscape:connector-curvature="0" /></g><g
         transform="translate(347.8184,231.0498)"
         id="g48"><path
           id="path50"
           style="fill:#415464;fill-opacity:1;fill-rule:nonzero;stroke:none"
           d="m 0,0 h -3.391 v -45.771 h 27.545 v 3.392 H 0 Z"
           inkscape:connector-curvature="0" /></g><g
         transform="translate(446.1797,188.6709)"
         id="g52"><path
           id="path54"
           style="fill:#415464;fill-opacity:1;fill-rule:nonzero;stroke:none"
           d="m 0,0 h -9.752 v 19.117 h 10.57 c 5.409,0 8.614,-4.972 8.614,-9.371 C 9.432,3.646 4.656,0 0,0 m -9.752,38.984 h 8.049 c 5.224,0 8.496,-4.088 8.496,-8.109 C 6.793,26.223 3.521,23.139 0,22.51 H -9.752 Z M 3.896,21.881 c 1.004,0.187 3.334,1.637 4.032,2.332 0.75,0.812 2.263,2.699 2.263,6.724 0,5.596 -4.402,11.442 -11.894,11.442 h -11.44 V -3.393 H 0.061 c 6.349,0 12.775,4.967 12.775,13.2 0,7.929 -6.986,11.89 -8.94,12.074"
           inkscape:connector-curvature="0" /></g><g
         transform="translate(379.1875,185.1084)"
         id="g56"><path
           id="path58"
           style="fill:#415464;fill-opacity:1;fill-rule:nonzero;stroke:none"
           d="M 0,0 H 3.732 L 21.928,39.092 40.172,0 h 3.775 L 21.984,47.07 Z"
           inkscape:connector-curvature="0" /></g><g
         transform="translate(157.2637,231.9131)"
         id="g60"><path
           id="path62"
           style="fill:#ac0b3d;fill-opacity:1;fill-rule:nonzero;stroke:none"
           d="m 0,0 -20.999,-48.072 h 7.113 c 0.696,0 1.382,0.105 2.073,0.326 0.698,0.219 1.341,0.512 1.959,0.896 0.594,0.399 1.14,0.844 1.615,1.366 0.489,0.511 0.856,1.076 1.133,1.671 l 2.274,5.34 4.393,9.963 4.228,10.063 c 0.191,0.439 0.33,0.869 0.458,1.277 0.122,0.395 0.217,0.752 0.285,1.074 0.091,0.371 0.2,1.035 0.2,1.035 0,0 0.077,-0.646 0.171,-1.011 0.066,-0.307 0.155,-0.664 0.266,-1.069 0.111,-0.41 0.27,-0.847 0.466,-1.306 l 4.195,-10.063 4.461,-9.963 2.35,-5.34 c 0.3,-0.669 0.668,-1.269 1.14,-1.791 0.471,-0.525 0.995,-0.972 1.578,-1.349 0.577,-0.363 1.211,-0.639 1.896,-0.824 0.677,-0.196 1.391,-0.295 2.127,-0.295 h 7.081 L 9.465,0 Z"
           inkscape:connector-curvature="0" /></g><g
         transform="translate(186.8945,209.3799)"
         id="g64"><path
           id="path66"
           style="fill:#ac0b3d;fill-opacity:1;fill-rule:nonzero;stroke:none"
           d="M 0,0 1.07,-2.441 5.444,-12.455 7,-15.939 l 2.352,-5.34 c 0.29,-0.67 0.662,-1.27 1.138,-1.791 0.468,-0.526 1.006,-0.973 1.577,-1.35 0.579,-0.363 1.211,-0.639 1.896,-0.824 0.689,-0.195 1.39,-0.295 2.126,-0.295 h 7.086 L 12.022,0 Z"
           inkscape:connector-curvature="0" /></g><g
         transform="translate(183.8096,216.417)"
         id="g68"><path
           id="path70"
           style="fill:#ac0b3d;fill-opacity:1;fill-rule:nonzero;stroke:none"
           d="M 0,0 H 12.028 L 5.247,15.496 H -6.789 l 1.315,-2.928 z"
           inkscape:connector-curvature="0" /></g><g
         transform="translate(304.9883,399.5439)"
         id="g72"><path
           id="path74"
           style="fill:#ac0b3d;fill-opacity:1;fill-rule:nonzero;stroke:none"
           d="m 0,0 h -16.351 l -36.273,-83.055 h 12.286 c 1.194,0 2.386,0.189 3.582,0.556 1.209,0.363 2.318,0.882 3.367,1.558 1.041,0.679 1.984,1.459 2.809,2.355 0.826,0.889 1.472,1.857 1.945,2.89 l 3.936,9.217 7.589,17.212 9.035,22.493 h 19.757 z"
           inkscape:connector-curvature="0" /></g><g
         transform="translate(301.3145,360.6035)"
         id="g76"><path
           id="path78"
           style="fill:#ac0b3d;fill-opacity:1;fill-rule:nonzero;stroke:none"
           d="m 0,0 4.311,-10.326 7.699,-17.212 4.062,-9.218 c 0.504,-1.149 1.16,-2.187 1.977,-3.092 0.801,-0.915 1.717,-1.689 2.709,-2.323 1,-0.633 2.109,-1.125 3.281,-1.449 1.178,-0.328 2.402,-0.494 3.684,-0.494 H 39.945 L 20.666,0 Z"
           inkscape:connector-curvature="0" /></g><g
         transform="translate(364.4883,317.7334)"
         id="g80"><path
           id="path82"
           style="fill:#415464;fill-opacity:1;fill-rule:nonzero;stroke:none"
           d="m 0,0 c -0.025,0.029 -0.045,0.047 -0.066,0.075 -1.649,-2.786 -3.455,-5.484 -5.409,-8.044 0,-0.008 -0.011,-0.021 -0.011,-0.021 -1.807,-2.371 -3.789,-4.614 -5.871,-6.736 -0.582,-0.593 -1.192,-1.17 -1.797,-1.743 -1.168,-1.113 -2.35,-2.202 -3.567,-3.234 -0.675,-0.575 -1.384,-1.126 -2.082,-1.67 -1.263,-1.006 -2.568,-1.996 -3.904,-2.926 -0.736,-0.508 -1.502,-0.982 -2.262,-1.474 -1.343,-0.872 -2.72,-1.711 -4.133,-2.514 -0.824,-0.455 -1.658,-0.875 -2.505,-1.297 -1.395,-0.725 -2.819,-1.424 -4.26,-2.066 -0.912,-0.397 -1.856,-0.75 -2.791,-1.121 -1.424,-0.567 -2.865,-1.118 -4.328,-1.588 -0.998,-0.325 -2.043,-0.62 -3.075,-0.903 -1.453,-0.408 -2.882,-0.802 -4.378,-1.123 -1.079,-0.238 -2.18,-0.424 -3.272,-0.617 -1.502,-0.262 -2.982,-0.502 -4.506,-0.682 -1.088,-0.129 -2.209,-0.197 -3.318,-0.277 -1.58,-0.121 -3.16,-0.225 -4.763,-0.244 -1.068,-0.02 -2.14,0.019 -3.209,0.055 -1.614,0.048 -3.231,0.111 -4.813,0.25 -1.071,0.087 -2.12,0.236 -3.171,0.373 -1.551,0.197 -3.083,0.41 -4.596,0.697 -1.081,0.207 -2.14,0.461 -3.2,0.709 -1.453,0.342 -2.879,0.689 -4.293,1.101 -1.098,0.336 -2.17,0.709 -3.25,1.071 -1.322,0.463 -2.643,0.916 -3.94,1.445 -1.107,0.445 -2.175,0.942 -3.269,1.447 -1.196,0.547 -2.413,1.118 -3.582,1.729 -1.09,0.576 -2.16,1.189 -3.23,1.826 -1.099,0.635 -2.191,1.281 -3.261,1.963 -1.068,0.703 -2.103,1.447 -3.133,2.187 -0.99,0.727 -1.99,1.442 -2.945,2.211 -1.022,0.806 -2.014,1.663 -2.984,2.528 -0.913,0.812 -1.847,1.631 -2.722,2.484 -0.912,0.869 -1.795,1.776 -2.652,2.69 -0.548,0.597 -1.118,1.169 -1.65,1.791 -0.586,0.664 -1.127,1.366 -1.696,2.065 -3.153,3.881 -5.942,8.041 -8.336,12.47 -0.021,-0.012 -0.041,-0.012 -0.068,-0.023 -0.248,0.47 -0.533,0.907 -0.78,1.371 1.495,1.522 2.406,3.615 2.33,5.908 -0.159,4.452 -3.85,7.914 -8.289,7.767 -4.439,-0.148 -7.924,-3.852 -7.775,-8.303 0.134,-4.212 3.514,-7.527 7.651,-7.733 6.047,-11.95 14.835,-22.219 25.498,-30.081 0.154,-0.115 0.303,-0.236 0.461,-0.355 1.267,-0.924 2.572,-1.797 3.899,-2.651 0.365,-0.242 0.707,-0.476 1.07,-0.707 1.177,-0.732 2.386,-1.43 3.595,-2.117 0.539,-0.295 1.06,-0.588 1.601,-0.881 1.107,-0.592 2.247,-1.146 3.384,-1.686 0.673,-0.322 1.328,-0.634 2.006,-0.943 1.082,-0.476 2.171,-0.914 3.269,-1.334 0.745,-0.31 1.512,-0.603 2.288,-0.896 1.069,-0.379 2.157,-0.731 3.24,-1.069 0.825,-0.265 1.641,-0.531 2.475,-0.756 1.092,-0.302 2.189,-0.587 3.287,-0.843 0.849,-0.207 1.702,-0.407 2.558,-0.58 1.127,-0.235 2.266,-0.434 3.415,-0.627 0.854,-0.137 1.698,-0.272 2.563,-0.379 1.176,-0.162 2.355,-0.282 3.555,-0.393 0.843,-0.08 1.696,-0.148 2.563,-0.197 1.206,-0.078 2.435,-0.108 3.654,-0.137 0.479,0 0.95,-0.047 1.442,-0.047 0.413,0 0.834,0.037 1.245,0.037 0.532,0.01 1.062,-0.021 1.593,0 0.471,0.01 0.932,0.077 1.393,0.098 1.296,0.068 2.566,0.166 3.839,0.287 0.866,0.08 1.739,0.151 2.614,0.264 1.539,0.195 3.072,0.441 4.586,0.719 1.345,0.25 2.662,0.541 3.984,0.849 1.055,0.233 2.111,0.471 3.143,0.762 1.179,0.314 2.33,0.678 3.494,1.057 0.693,0.224 1.384,0.443 2.064,0.675 1.315,0.463 2.594,0.936 3.86,1.45 0.345,0.138 0.685,0.287 1.027,0.437 24.004,10.063 42.336,30.714 49.238,56.001 H 7.891 C 6.002,11.511 3.301,5.551 0,0"
           inkscape:connector-curvature="0" /></g><g
         transform="translate(374.2227,393.8359)"
         id="g84"><path
           id="path86"
           style="fill:#415464;fill-opacity:1;fill-rule:nonzero;stroke:none"
           d="m 0,0 c -0.365,0.754 -0.768,1.483 -1.127,2.229 0.018,0 0.035,0.024 0.057,0.032 -0.344,0.667 -0.739,1.325 -1.1,2.003 -0.33,0.621 -0.668,1.247 -1.023,1.862 -0.62,1.076 -1.266,2.139 -1.922,3.189 -0.412,0.668 -0.824,1.328 -1.256,1.976 -0.66,0.977 -1.338,1.927 -2.014,2.869 -0.5,0.689 -1.004,1.371 -1.525,2.036 -0.666,0.878 -1.361,1.723 -2.07,2.555 -0.588,0.704 -1.178,1.405 -1.784,2.085 -0.689,0.763 -1.398,1.519 -2.103,2.257 -0.676,0.712 -1.373,1.402 -2.072,2.096 -0.698,0.667 -1.403,1.324 -2.122,1.969 -0.769,0.707 -1.541,1.396 -2.335,2.066 -0.709,0.584 -1.416,1.162 -2.141,1.727 -0.846,0.671 -1.699,1.326 -2.574,1.972 -0.717,0.52 -1.446,1.019 -2.172,1.531 -0.922,0.616 -1.844,1.233 -2.785,1.827 -0.741,0.462 -1.485,0.899 -2.229,1.346 -0.976,0.567 -1.943,1.111 -2.949,1.647 -0.764,0.408 -1.541,0.801 -2.326,1.195 -0.998,0.494 -2.024,0.963 -3.055,1.439 -0.814,0.351 -1.629,0.699 -2.455,1.03 -1.029,0.419 -2.051,0.818 -3.102,1.208 -0.863,0.304 -1.728,0.603 -2.611,0.89 -1.039,0.338 -2.074,0.655 -3.133,0.954 -0.914,0.257 -1.838,0.498 -2.767,0.729 -1.043,0.254 -2.084,0.502 -3.155,0.716 -0.955,0.201 -1.921,0.384 -2.896,0.541 -1.053,0.175 -2.123,0.344 -3.19,0.484 -0.984,0.128 -1.978,0.24 -2.959,0.334 -1.107,0.105 -2.207,0.197 -3.318,0.264 -0.963,0.047 -1.924,0.08 -2.888,0.101 -0.657,0.016 -1.316,0.077 -1.971,0.077 -0.474,0 -0.923,-0.061 -1.384,-0.061 -0.474,-0.008 -0.944,0.022 -1.417,0 -0.982,-0.028 -1.926,-0.126 -2.885,-0.184 -0.807,-0.059 -1.609,-0.092 -2.405,-0.157 -2.113,-0.218 -4.183,-0.474 -6.246,-0.831 -0.707,-0.117 -1.385,-0.273 -2.083,-0.415 -1.44,-0.29 -2.896,-0.597 -4.309,-0.943 -0.855,-0.216 -1.7,-0.458 -2.542,-0.704 -1.289,-0.363 -2.554,-0.755 -3.81,-1.182 -0.809,-0.271 -1.602,-0.526 -2.399,-0.82 -1.511,-0.569 -3.013,-1.178 -4.488,-1.827 -0.458,-0.196 -0.94,-0.37 -1.403,-0.58 -1.855,-0.852 -3.662,-1.791 -5.44,-2.775 -0.687,-0.371 -1.355,-0.776 -2.031,-1.18 -1.159,-0.673 -2.322,-1.381 -3.44,-2.121 -0.706,-0.463 -1.404,-0.915 -2.091,-1.394 -1.128,-0.787 -2.239,-1.616 -3.336,-2.461 -0.583,-0.441 -1.171,-0.88 -1.74,-1.334 -1.541,-1.263 -3.061,-2.572 -4.513,-3.94 -0.522,-0.479 -1.003,-0.993 -1.516,-1.494 -0.989,-0.978 -1.964,-1.956 -2.907,-2.979 -0.577,-0.631 -1.138,-1.276 -1.698,-1.916 -0.866,-0.986 -1.699,-2 -2.524,-3.037 -0.492,-0.629 -0.988,-1.236 -1.461,-1.883 -1.16,-1.554 -2.27,-3.128 -3.321,-4.759 -0.193,-0.305 -0.393,-0.631 -0.597,-0.953 -0.817,-1.311 -1.622,-2.621 -2.37,-3.97 0.01,-0.012 0.024,-0.032 0.039,-0.042 -3.679,-6.636 -6.527,-13.789 -8.333,-21.365 h 6.724 c 1.522,5.847 3.713,11.396 6.441,16.638 0.023,-0.01 0.031,-0.032 0.04,-0.04 2.436,4.668 5.284,9.073 8.556,13.139 0.096,0.12 0.196,0.244 0.289,0.363 0.925,1.132 1.891,2.235 2.882,3.307 0.243,0.283 0.499,0.554 0.753,0.816 1.197,1.262 2.474,2.455 3.754,3.649 0.685,0.622 1.354,1.263 2.05,1.854 1.2,1.029 2.448,2.004 3.712,2.965 0.75,0.566 1.484,1.147 2.25,1.692 1.285,0.9 2.602,1.747 3.947,2.581 0.805,0.5 1.62,1.003 2.444,1.484 1.365,0.776 2.77,1.488 4.173,2.185 0.876,0.42 1.74,0.863 2.625,1.26 1.432,0.644 2.914,1.22 4.407,1.773 0.904,0.355 1.808,0.697 2.731,1.008 1.532,0.512 3.084,0.953 4.641,1.363 0.945,0.245 1.879,0.511 2.819,0.722 1.603,0.365 3.241,0.649 4.88,0.915 0.954,0.158 1.907,0.323 2.879,0.442 1.658,0.193 3.336,0.313 5.027,0.408 1.001,0.061 2.007,0.136 3.023,0.164 1.631,0.031 3.242,-0.018 4.853,-0.085 1.099,-0.047 2.193,-0.085 3.281,-0.174 1.51,-0.12 3.014,-0.313 4.496,-0.531 1.117,-0.159 2.246,-0.295 3.348,-0.51 1.445,-0.264 2.869,-0.6 4.299,-0.953 1.082,-0.272 2.191,-0.525 3.263,-0.837 1.397,-0.412 2.746,-0.876 4.114,-1.354 1.06,-0.382 2.111,-0.736 3.14,-1.152 1.326,-0.537 2.613,-1.12 3.891,-1.712 1.029,-0.483 2.06,-0.961 3.054,-1.483 1.217,-0.619 2.393,-1.311 3.569,-2.009 1.027,-0.598 2.047,-1.193 3.029,-1.827 1.078,-0.707 2.131,-1.459 3.17,-2.216 1.022,-0.734 2.045,-1.477 3.027,-2.261 0.922,-0.736 1.815,-1.517 2.707,-2.304 1.022,-0.894 2.045,-1.797 3.016,-2.75 0.863,-0.824 1.691,-1.688 2.502,-2.553 0.709,-0.754 1.426,-1.515 2.104,-2.29 0.933,-1.086 1.806,-2.2 2.679,-3.32 0.522,-0.68 1.061,-1.339 1.565,-2.029 0.988,-1.379 1.929,-2.814 2.838,-4.25 0.312,-0.496 0.636,-0.962 0.929,-1.459 1.182,-1.972 2.289,-3.991 3.287,-6.067 0.112,-0.219 0.252,-0.423 0.348,-0.644 -1.553,-1.464 -2.525,-3.526 -2.525,-5.821 0,-4.456 3.584,-8.041 8.033,-8.041 4.428,0 8.043,3.585 8.043,8.041 C 7.385,-3.768 4.123,-0.348 0,0"
           inkscape:connector-curvature="0" /></g><g
         aria-label="AiPLATFORM Management Console"
         transform="matrix(0.43175251,0,0,-0.46076406,124.04411,477.86061)"
         id="text5832"
         style="font-size:40px;line-height:1.25;white-space:pre;shape-inside:url(#rect5834);fill:#1db7ff"><path
           d="m 45.146484,708.91704 h -7.753906 l -2.011719,-5.87891 h -10.78125 l -2.011718,5.87891 h -7.558594 l 10.742187,-29.08203 h 8.632813 z M 33.564453,697.7061 29.990234,687.27642 26.416016,697.7061 Z"
           style="font-weight:bold"
           id="path3767" /><path
           d="m 55.966797,708.91704 h -7.03125 v -21.93359 h 7.03125 z m 0.195312,-25.05859 h -7.421875 v -5.33203 h 7.421875 z"
           style="font-weight:bold"
           id="path3769" /><path
           d="m 87.001953,689.0147 q 0,1.95312 -0.683594,3.82812 -0.683593,1.85547 -1.953125,3.125 -1.738281,1.71875 -3.886718,2.59766 -2.128907,0.8789 -5.3125,0.8789 h -4.667969 v 9.47266 h -7.5 v -29.08203 h 12.34375 q 2.773437,0 4.667969,0.48828 1.914062,0.46875 3.378906,1.42578 1.757812,1.15235 2.675781,2.94922 0.9375,1.79688 0.9375,4.31641 z m -7.753906,0.17578 q 0,-1.23047 -0.664063,-2.10938 -0.664062,-0.89843 -1.542968,-1.25 -1.171875,-0.46875 -2.285157,-0.50781 -1.113281,-0.0586 -2.96875,-0.0586 h -1.289062 v 8.71093 h 2.148437 q 1.914063,0 3.144532,-0.23437 1.25,-0.23438 2.089843,-0.9375 0.722657,-0.625 1.035157,-1.48438 0.332031,-0.8789 0.332031,-2.1289 z"
           style="font-weight:bold"
           id="path3771" /><path
           d="M 113.29102,708.91704 H 92.314453 v -29.08203 h 7.5 v 23.45703 h 13.476567 z"
           style="font-weight:bold"
           id="path3773" /><path
           d="m 144.67773,708.91704 h -7.7539 l -2.01172,-5.87891 h -10.78125 l -2.01172,5.87891 h -7.55859 l 10.74218,-29.08203 h 8.63282 z m -11.58203,-11.21094 -3.57422,-10.42968 -3.57421,10.42968 z"
           style="font-weight:bold"
           id="path3775" /><path
           d="m 171.61133,685.46001 h -9.08203 v 23.45703 h -7.5 v -23.45703 h -9.08203 v -5.625 h 25.66406 z"
           style="font-weight:bold"
           id="path3777" /><path
           d="m 196.96289,685.46001 h -13.37891 v 5.41016 h 12.40235 v 5.625 h -12.40235 v 12.42187 h -7.46093 v -29.08203 h 20.83984 z"
           style="font-weight:bold"
           id="path3779" /><path
           d="m 230.41992,694.38579 q 0,6.95313 -3.98437,11.05469 -3.98438,4.08203 -11.01563,4.08203 -7.01172,0 -10.99609,-4.08203 -3.98438,-4.10156 -3.98438,-11.05469 0,-7.01172 3.98438,-11.07422 3.98437,-4.08203 10.99609,-4.08203 6.99219,0 10.9961,4.08203 4.0039,4.0625 4.0039,11.07422 z m -9.9414,7.36328 q 1.09375,-1.32812 1.62109,-3.125 0.52734,-1.8164 0.52734,-4.25781 0,-2.61719 -0.60547,-4.45313 -0.60546,-1.83593 -1.58203,-2.96875 -0.99609,-1.17187 -2.30468,-1.69921 -1.28907,-0.52735 -2.69532,-0.52735 -1.42578,0 -2.69531,0.50781 -1.25,0.50782 -2.30469,1.67969 -0.97656,1.09375 -1.60156,3.02735 -0.60547,1.91406 -0.60547,4.45312 0,2.59766 0.58594,4.43359 0.60547,1.81641 1.58203,2.96875 0.97656,1.15235 2.28516,1.69922 1.30859,0.54688 2.7539,0.54688 1.44532,0 2.75391,-0.54688 1.30859,-0.5664 2.28516,-1.73828 z"
           style="font-weight:bold"
           id="path3781" /><path
           d="m 252.45117,688.74126 q 0,-1.09375 -0.44922,-1.875 -0.44922,-0.78125 -1.54297,-1.23047 -0.76171,-0.3125 -1.77734,-0.37109 -1.01562,-0.0781 -2.36328,-0.0781 h -2.71484 v 7.83203 h 2.30468 q 1.79688,0 3.00782,-0.17578 1.21093,-0.17578 2.03125,-0.80078 0.78125,-0.60547 1.13281,-1.32812 0.37109,-0.74219 0.37109,-1.97266 z m 11.69922,20.17578 h -9.16016 l -7.92968,-10.66406 h -3.45703 v 10.66406 h -7.46094 v -29.08203 h 12.57812 q 2.57813,0 4.4336,0.29297 1.85547,0.29297 3.47656,1.26953 1.64062,0.97656 2.59766,2.53906 0.97656,1.54297 0.97656,3.88672 0,3.22266 -1.50391,5.25391 -1.48437,2.03125 -4.25781,3.3789 z"
           style="font-weight:bold"
           id="path3783" /><path
           d="m 297.91992,708.91704 h -7.46094 v -19.47266 l -5.39062,12.63672 h -5.17578 l -5.39063,-12.63672 v 19.47266 h -7.07031 v -29.08203 h 8.71094 l 6.54297,14.58984 6.52343,-14.58984 h 8.71094 z"
           style="font-weight:bold"
           id="path3785" /><path
           d="m 349.50195,708.91704 h -7.46093 v -19.47266 l -5.39063,12.63672 h -5.17578 l -5.39063,-12.63672 v 19.47266 h -7.07031 v -29.08203 h 8.71094 l 6.54297,14.58984 6.52344,-14.58984 h 8.71093 z"
           style="font-weight:bold"
           id="path3787" /><path
           d="m 369.81445,703.19438 v -4.57031 q -1.42578,0.11719 -3.08593,0.33203 -1.66016,0.19532 -2.51954,0.46875 -1.05468,0.33203 -1.62109,0.97657 -0.54687,0.625 -0.54687,1.66015 0,0.6836 0.11718,1.11328 0.11719,0.42969 0.58594,0.82032 0.44922,0.39062 1.07422,0.58593 0.625,0.17578 1.95312,0.17578 1.05469,0 2.12891,-0.42968 1.09375,-0.42969 1.91406,-1.13282 z m 0,3.39844 q -0.5664,0.42969 -1.40625,1.03516 -0.83984,0.60547 -1.58203,0.95703 -1.03515,0.46875 -2.14844,0.68359 -1.11328,0.23438 -2.4414,0.23438 -3.125,0 -5.23438,-1.9336 -2.10937,-1.93359 -2.10937,-4.9414 0,-2.40235 1.07422,-3.92578 1.07422,-1.52344 3.04687,-2.40235 1.95313,-0.8789 4.84375,-1.25 2.89063,-0.37109 5.9961,-0.54687 v -0.11719 q 0,-1.81641 -1.48438,-2.5 -1.48437,-0.70312 -4.375,-0.70312 -1.73828,0 -3.71094,0.625 -1.97265,0.60546 -2.83203,0.9375 h -0.64453 v -5.29297 q 1.11328,-0.29297 3.61328,-0.6836 2.51953,-0.41015 5.03906,-0.41015 5.9961,0 8.65235,1.85547 2.67578,1.83593 2.67578,5.78125 v 14.92187 h -6.97266 z"
           style="font-weight:bold"
           id="path3789" /><path
           d="m 405.2832,708.91704 h -7.07031 v -10.87891 q 0,-1.32812 -0.13672,-2.63671 -0.13672,-1.32813 -0.46875,-1.95313 -0.39062,-0.72266 -1.15234,-1.05469 -0.74219,-0.33203 -2.08985,-0.33203 -0.95703,0 -1.95312,0.3125 -0.97656,0.3125 -2.12891,0.9961 v 15.54687 h -7.03125 v -21.93359 h 7.03125 v 2.42187 q 1.875,-1.46484 3.59375,-2.24609 1.73828,-0.78125 3.84766,-0.78125 3.55469,0 5.54687,2.07031 2.01172,2.07031 2.01172,6.19141 z"
           style="font-weight:bold"
           id="path3791" /><path
           d="m 425.0293,703.19438 v -4.57031 q -1.42578,0.11719 -3.08594,0.33203 -1.66016,0.19532 -2.51953,0.46875 -1.05469,0.33203 -1.6211,0.97657 -0.54687,0.625 -0.54687,1.66015 0,0.6836 0.11719,1.11328 0.11718,0.42969 0.58593,0.82032 0.44922,0.39062 1.07422,0.58593 0.625,0.17578 1.95313,0.17578 1.05469,0 2.1289,-0.42968 1.09375,-0.42969 1.91407,-1.13282 z m 0,3.39844 q -0.56641,0.42969 -1.40625,1.03516 -0.83985,0.60547 -1.58203,0.95703 -1.03516,0.46875 -2.14844,0.68359 -1.11328,0.23438 -2.44141,0.23438 -3.125,0 -5.23437,-1.9336 -2.10938,-1.93359 -2.10938,-4.9414 0,-2.40235 1.07422,-3.92578 1.07422,-1.52344 3.04688,-2.40235 1.95312,-0.8789 4.84375,-1.25 2.89062,-0.37109 5.99609,-0.54687 v -0.11719 q 0,-1.81641 -1.48438,-2.5 -1.48437,-0.70312 -4.375,-0.70312 -1.73828,0 -3.71093,0.625 -1.97266,0.60546 -2.83203,0.9375 h -0.64454 v -5.29297 q 1.11329,-0.29297 3.61329,-0.6836 2.51953,-0.41015 5.03906,-0.41015 5.99609,0 8.65234,1.85547 2.67578,1.83593 2.67578,5.78125 v 14.92187 h -6.97265 z"
           style="font-weight:bold"
           id="path3793" /><path
           d="m 459.79492,706.39751 q 0,3.08594 -0.8789,5.19531 -0.87891,2.10938 -2.46094,3.30078 -1.58203,1.21094 -3.82813,1.73828 -2.22656,0.54688 -5.03906,0.54688 -2.28516,0 -4.51172,-0.27344 -2.20703,-0.27344 -3.82812,-0.66406 v -5.48828 h 0.85937 q 1.28906,0.50781 3.14453,0.91797 1.85547,0.42968 3.32032,0.42968 1.95312,0 3.16406,-0.37109 1.23047,-0.35156 1.875,-1.01562 0.60547,-0.625 0.8789,-1.60157 0.27344,-0.97656 0.27344,-2.34375 v -0.41015 q -1.26953,1.03515 -2.8125,1.64062 -1.54297,0.60547 -3.4375,0.60547 -4.60937,0 -7.10937,-2.77344 -2.5,-2.77343 -2.5,-8.4375 0,-2.71484 0.76172,-4.6875 0.76171,-1.97265 2.14843,-3.4375 1.28907,-1.36718 3.16407,-2.1289 1.89453,-0.76172 3.86718,-0.76172 1.77735,0 3.22266,0.42969 1.46484,0.41015 2.65625,1.15234 l 0.25391,-0.97656 h 6.8164 z m -7.03125,-4.39453 v -9.94141 q -0.60547,-0.2539 -1.48437,-0.39062 -0.87891,-0.15625 -1.58203,-0.15625 -2.77344,0 -4.16016,1.60156 -1.38672,1.58203 -1.38672,4.43359 0,3.16407 1.17188,4.41407 1.1914,1.25 3.51562,1.25 1.05469,0 2.07031,-0.33204 1.01563,-0.33203 1.85547,-0.8789 z"
           style="font-weight:bold"
           id="path3795" /><path
           d="m 488.03711,699.24907 h -16.09375 q 0.15625,2.57813 1.95312,3.94531 1.81641,1.36719 5.33204,1.36719 2.22656,0 4.3164,-0.80078 2.08985,-0.80078 3.30078,-1.71875 h 0.78125 v 5.64453 q -2.38281,0.95703 -4.49218,1.38672 -2.10938,0.42969 -4.66797,0.42969 -6.60157,0 -10.11719,-2.96875 -3.51563,-2.96875 -3.51563,-8.45703 0,-5.42969 3.32032,-8.59375 3.33984,-3.1836 9.14062,-3.1836 5.35156,0 8.04688,2.71485 2.69531,2.69531 2.69531,7.77343 z m -6.99219,-4.12109 q -0.0586,-2.20703 -1.09375,-3.32031 -1.03515,-1.11329 -3.22265,-1.11329 -2.03125,0 -3.33985,1.05469 -1.30859,1.05469 -1.46484,3.37891 z"
           style="font-weight:bold"
           id="path3797" /><path
           d="m 514.44336,693.37017 v 15.54687 h -7.07031 v -10.95703 q 0,-1.60156 -0.0781,-2.71484 -0.0781,-1.13282 -0.42969,-1.83594 -0.35156,-0.70313 -1.07421,-1.01563 -0.70313,-0.33203 -1.99219,-0.33203 -1.03516,0 -2.01172,0.42969 -0.97656,0.41016 -1.75781,0.87891 v 15.54687 h -7.03125 v -21.93359 h 7.03125 v 2.42187 q 1.8164,-1.42578 3.47656,-2.22656 1.66016,-0.80078 3.67187,-0.80078 2.16797,0 3.82813,0.97656 1.66016,0.95703 2.59766,2.83203 2.10937,-1.77734 4.10156,-2.79297 1.99219,-1.01562 3.90625,-1.01562 3.55469,0 5.39062,2.1289 1.85547,2.12891 1.85547,6.13282 v 14.27734 h -7.07031 v -10.95703 q 0,-1.62109 -0.0781,-2.73438 -0.0586,-1.11328 -0.41015,-1.8164 -0.33203,-0.70313 -1.05469,-1.01563 -0.72266,-0.33203 -2.03125,-0.33203 -0.87891,0 -1.71875,0.3125 -0.83984,0.29297 -2.05078,0.9961 z"
           style="font-weight:bold"
           id="path3799" /><path
           d="m 556.92383,699.24907 h -16.09375 q 0.15625,2.57813 1.95312,3.94531 1.81641,1.36719 5.33203,1.36719 2.22657,0 4.31641,-0.80078 2.08984,-0.80078 3.30078,-1.71875 h 0.78125 v 5.64453 q -2.38281,0.95703 -4.49219,1.38672 -2.10937,0.42969 -4.66796,0.42969 -6.60157,0 -10.11719,-2.96875 -3.51563,-2.96875 -3.51563,-8.45703 0,-5.42969 3.32032,-8.59375 3.33984,-3.1836 9.14062,-3.1836 5.35156,0 8.04688,2.71485 2.69531,2.69531 2.69531,7.77343 z m -6.99219,-4.12109 q -0.0586,-2.20703 -1.09375,-3.32031 -1.03516,-1.11329 -3.22266,-1.11329 -2.03125,0 -3.33984,1.05469 -1.30859,1.05469 -1.46484,3.37891 z"
           style="font-weight:bold"
           id="path3801" /><path
           d="m 583.91602,708.91704 h -7.07032 v -10.87891 q 0,-1.32812 -0.13672,-2.63671 -0.13671,-1.32813 -0.46875,-1.95313 -0.39062,-0.72266 -1.15234,-1.05469 -0.74219,-0.33203 -2.08984,-0.33203 -0.95703,0 -1.95313,0.3125 -0.97656,0.3125 -2.1289,0.9961 v 15.54687 h -7.03125 v -21.93359 h 7.03125 v 2.42187 q 1.875,-1.46484 3.59375,-2.24609 1.73828,-0.78125 3.84765,-0.78125 3.55469,0 5.54688,2.07031 2.01172,2.07031 2.01172,6.19141 z"
           style="font-weight:bold"
           id="path3803" /><path
           d="m 604.4043,708.72173 q -1.13282,0.29297 -2.40235,0.44922 -1.26953,0.17578 -3.10547,0.17578 -4.10156,0 -6.11328,-1.66016 -1.99218,-1.66015 -1.99218,-5.68359 v -10.25391 h -2.89063 v -4.76562 h 2.89063 v -6.26953 h 7.03125 v 6.26953 h 6.58203 v 4.76562 h -6.58203 v 7.77344 q 0,1.15234 0.0195,2.01172 0.0195,0.85937 0.3125,1.54297 0.27343,0.68359 0.95703,1.09375 0.70312,0.39062 2.03125,0.39062 0.54687,0 1.42578,-0.23437 0.89844,-0.23438 1.25,-0.42969 h 0.58594 z"
           style="font-weight:bold"
           id="path3805" /><path
           d="m 635.81055,709.48345 q -3.24219,0 -5.9961,-0.95703 -2.73437,-0.95704 -4.70703,-2.85157 -1.97265,-1.89453 -3.0664,-4.72656 -1.07422,-2.83203 -1.07422,-6.54297 0,-3.45703 1.03515,-6.26953 1.03516,-2.8125 3.00782,-4.82422 1.89453,-1.93359 4.6875,-2.98828 2.8125,-1.05469 6.13281,-1.05469 1.83594,0 3.30078,0.21485 1.48437,0.19531 2.73437,0.52734 1.3086,0.37109 2.36329,0.83984 1.07421,0.44922 1.875,0.83985 v 7.05078 h -0.85938 q -0.54687,-0.46875 -1.38672,-1.11328 -0.82031,-0.64453 -1.875,-1.26953 -1.07422,-0.625 -2.32422,-1.05469 -1.25,-0.42969 -2.67578,-0.42969 -1.58203,0 -3.00781,0.50781 -1.42578,0.48829 -2.63672,1.64063 -1.15234,1.11328 -1.875,2.94922 -0.70312,1.83594 -0.70312,4.45312 0,2.73438 0.76171,4.57032 0.78125,1.83593 1.95313,2.89062 1.19141,1.07422 2.65625,1.54297 1.46484,0.44922 2.89062,0.44922 1.36719,0 2.69532,-0.41016 1.34765,-0.41015 2.48047,-1.11328 0.95703,-0.56641 1.77734,-1.21094 0.82031,-0.64453 1.34766,-1.11328 h 0.78125 v 6.95313 q -1.09375,0.48828 -2.08985,0.91797 -0.99609,0.42968 -2.08984,0.74218 -1.42578,0.41016 -2.67578,0.625 -1.25,0.21485 -3.4375,0.21485 z"
           style="font-weight:bold"
           id="path3807" /><path
           d="m 673.64258,697.96001 q 0,5.41016 -3.16406,8.53516 -3.14454,3.10546 -8.84766,3.10546 -5.70313,0 -8.86719,-3.10546 -3.14453,-3.125 -3.14453,-8.53516 0,-5.44922 3.16406,-8.55469 3.1836,-3.10547 8.84766,-3.10547 5.74219,0 8.86719,3.125 3.14453,3.125 3.14453,8.53516 z m -8.65235,5.33203 q 0.6836,-0.83984 1.01563,-2.01172 0.35156,-1.1914 0.35156,-3.28125 0,-1.93359 -0.35156,-3.24219 -0.35156,-1.30859 -0.97656,-2.08984 -0.625,-0.80078 -1.50391,-1.13281 -0.87891,-0.33203 -1.89453,-0.33203 -1.01563,0 -1.81641,0.27343 -0.78125,0.27344 -1.5039,1.09375 -0.64453,0.76172 -1.03516,2.08985 -0.37109,1.32812 -0.37109,3.33984 0,1.79688 0.33203,3.125 0.33203,1.3086 0.97656,2.10938 0.625,0.76172 1.48438,1.11328 0.8789,0.35156 1.99218,0.35156 0.95703,0 1.81641,-0.3125 0.87891,-0.33203 1.48437,-1.09375 z"
           style="font-weight:bold"
           id="path3809" /><path
           d="m 700.71289,708.91704 h -7.07031 v -10.87891 q 0,-1.32812 -0.13672,-2.63671 -0.13672,-1.32813 -0.46875,-1.95313 -0.39063,-0.72266 -1.15234,-1.05469 -0.74219,-0.33203 -2.08985,-0.33203 -0.95703,0 -1.95312,0.3125 -0.97657,0.3125 -2.12891,0.9961 v 15.54687 h -7.03125 v -21.93359 h 7.03125 v 2.42187 q 1.875,-1.46484 3.59375,-2.24609 1.73828,-0.78125 3.84766,-0.78125 3.55468,0 5.54687,2.07031 2.01172,2.07031 2.01172,6.19141 z"
           style="font-weight:bold"
           id="path3811" /><path
           d="m 726.24023,701.96392 q 0,3.39843 -3.04687,5.48828 -3.04688,2.07031 -8.33984,2.07031 -2.92969,0 -5.3125,-0.54688 -2.38282,-0.54687 -3.82813,-1.21093 v -5.78125 h 0.64453 q 0.52735,0.37109 1.21094,0.82031 0.70312,0.42969 1.97266,0.9375 1.09375,0.44922 2.48046,0.78125 1.38672,0.3125 2.96875,0.3125 2.07032,0 3.06641,-0.44922 0.99609,-0.46875 0.99609,-1.36719 0,-0.80078 -0.58593,-1.15234 -0.58594,-0.37109 -2.22657,-0.70313 -0.78125,-0.17578 -2.1289,-0.37109 -1.32813,-0.21484 -2.42188,-0.50781 -2.98828,-0.78125 -4.43359,-2.42188 -1.44531,-1.66015 -1.44531,-4.12109 0,-3.16406 2.98828,-5.25391 3.00781,-2.10937 8.20312,-2.10937 2.46094,0 4.70703,0.50781 2.26563,0.48828 3.53516,1.05469 v 5.54687 h -0.60547 q -1.5625,-1.07422 -3.57422,-1.73828 -1.99218,-0.68359 -4.04297,-0.68359 -1.69921,0 -2.87109,0.46875 -1.15234,0.46875 -1.15234,1.32812 0,0.78125 0.52734,1.19141 0.52734,0.41016 2.48047,0.82031 1.07422,0.21485 2.30469,0.42969 1.25,0.19531 2.5,0.50781 2.77343,0.72266 4.10156,2.28516 1.32812,1.54297 1.32812,3.86719 z"
           style="font-weight:bold"
           id="path3813" /><path
           d="m 753.33008,697.96001 q 0,5.41016 -3.16406,8.53516 -3.14454,3.10546 -8.84766,3.10546 -5.70313,0 -8.86719,-3.10546 -3.14453,-3.125 -3.14453,-8.53516 0,-5.44922 3.16406,-8.55469 3.1836,-3.10547 8.84766,-3.10547 5.74219,0 8.86719,3.125 3.14453,3.125 3.14453,8.53516 z m -8.65235,5.33203 q 0.6836,-0.83984 1.01563,-2.01172 0.35156,-1.1914 0.35156,-3.28125 0,-1.93359 -0.35156,-3.24219 -0.35156,-1.30859 -0.97656,-2.08984 -0.625,-0.80078 -1.50391,-1.13281 -0.87891,-0.33203 -1.89453,-0.33203 -1.01563,0 -1.81641,0.27343 -0.78125,0.27344 -1.5039,1.09375 -0.64453,0.76172 -1.03516,2.08985 -0.37109,1.32812 -0.37109,3.33984 0,1.79688 0.33203,3.125 0.33203,1.3086 0.97656,2.10938 0.625,0.76172 1.48438,1.11328 0.8789,0.35156 1.99218,0.35156 0.95703,0 1.81641,-0.3125 0.87891,-0.33203 1.48437,-1.09375 z"
           style="font-weight:bold"
           id="path3815" /><path
           d="m 765.40039,708.91704 h -7.03125 v -30.39062 h 7.03125 z"
           style="font-weight:bold"
           id="path3817" /><path
           d="m 793.64258,699.24907 h -16.09375 q 0.15625,2.57813 1.95312,3.94531 1.81641,1.36719 5.33203,1.36719 2.22657,0 4.31641,-0.80078 2.08984,-0.80078 3.30078,-1.71875 h 0.78125 v 5.64453 q -2.38281,0.95703 -4.49219,1.38672 -2.10937,0.42969 -4.66796,0.42969 -6.60157,0 -10.11719,-2.96875 -3.51563,-2.96875 -3.51563,-8.45703 0,-5.42969 3.32032,-8.59375 3.33984,-3.1836 9.14062,-3.1836 5.35156,0 8.04688,2.71485 2.69531,2.69531 2.69531,7.77343 z m -6.99219,-4.12109 q -0.0586,-2.20703 -1.09375,-3.32031 -1.03516,-1.11329 -3.22266,-1.11329 -2.03125,0 -3.33984,1.05469 -1.30859,1.05469 -1.46484,3.37891 z"
           style="font-weight:bold"
           id="path3819" /></g></g></g></svg>
